<?xml version="1.0" encoding="utf-8"?>
<!-- Generator: Adobe Illustrator 18.0.0, SVG Export Plug-In . SVG Version: 6.00 Build 0)  -->
<!DOCTYPE svg PUBLIC "-//W3C//DTD SVG 1.1//EN" "http://www.w3.org/Graphics/SVG/1.1/DTD/svg11.dtd">
<svg version="1.1" id="Layer_1" xmlns="http://www.w3.org/2000/svg" xmlns:xlink="http://www.w3.org/1999/xlink" x="0px" y="0px"
	 viewBox="0 49.8 1820 585.1" enable-background="new 0 49.8 1820 585.1" xml:space="preserve">
<g>
	<g>
		<path fill="#FFFFFF" d="M714.2,426.8c-97.6,0-176.9-79.3-176.9-176.9S616.9,73.1,714.2,73.1s176.9,79.3,176.9,176.9
			S811.8,426.8,714.2,426.8z"/>
		<path fill="#FFFFFF" d="M1110.5,426.8c-97.6,0-176.9-79.3-176.9-176.9l0,0c0-72.5-35.2-136.8-89.7-176.9h266.5l0,0
			c97.6,0,176.9,79.3,176.9,176.9S1208.1,426.8,1110.5,426.8z"/>
	</g>
	<g enable-background="new    ">
		<path fill="#FFFFFF" d="M117.4,603.6c-10.1,10.4-24.8,15.6-43.9,15.6c-19.2,0-33.8-5.2-43.9-15.6C16,590.8,9.2,572.3,9.2,548.3
			c0-24.5,6.8-43,20.4-55.3c10.1-10.4,24.8-15.6,43.9-15.6c19.2,0,33.8,5.2,43.9,15.6c13.5,12.3,20.3,30.7,20.3,55.3
			C137.7,572.3,130.9,590.8,117.4,603.6z M99.9,583.2c6.5-8.2,9.8-19.8,9.8-34.9c0-15-3.3-26.7-9.8-34.9
			c-6.5-8.2-15.3-12.3-26.4-12.3s-19.9,4.1-26.6,12.3c-6.6,8.2-9.9,19.8-9.9,34.9c0,15.1,3.3,26.7,9.9,34.9
			c6.6,8.2,15.5,12.3,26.6,12.3S93.4,591.4,99.9,583.2z"/>
		<path fill="#FFFFFF" d="M182.8,516.4v59.7c0,5.6,0.7,9.9,2,12.7c2.4,5,7,7.5,13.8,7.5c8.8,0,14.8-3.6,18.1-10.7
			c1.7-3.9,2.5-9,2.5-15.4v-53.9h26.3v99.1h-25.2v-14c-0.2,0.3-0.8,1.2-1.8,2.7c-1,1.5-2.1,2.9-3.4,4c-4.1,3.6-8,6.1-11.7,7.5
			c-3.8,1.3-8.2,2-13.3,2c-14.6,0-24.5-5.3-29.6-15.8c-2.8-5.8-4.3-14.4-4.3-25.7v-59.7H182.8z"/>
		<path fill="#FFFFFF" d="M325.8,514c0.3,0,1.1,0.1,2.2,0.1v26.6c-1.6-0.2-3.1-0.3-4.4-0.4c-1.3-0.1-2.3-0.1-3.1-0.1
			c-10.4,0-17.4,3.4-21,10.2c-2,3.8-3,9.7-3,17.6v47.4h-26.1v-99.1h24.7v17.3c4-6.6,7.5-11.1,10.5-13.5c4.8-4.1,11.2-6.1,18.9-6.1
			C325,514,325.4,514,325.8,514z"/>
		<path fill="#FFFFFF" d="M409.8,495.5c10.8-11,24.5-16.5,41.2-16.5c22.3,0,38.6,7.4,48.9,22.2c5.7,8.3,8.8,16.6,9.2,25h-28
			c-1.8-6.4-4.1-11.3-6.9-14.5c-5-5.8-12.4-8.7-22.2-8.7c-10,0-17.8,4.1-23.6,12.3c-5.8,8.2-8.6,19.8-8.6,34.9c0,15,3,26.3,9.1,33.8
			c6.1,7.5,13.8,11.2,23.2,11.2c9.6,0,16.9-3.2,22-9.6c2.8-3.5,5.1-8.6,6.9-15.5h27.8c-2.4,14.6-8.5,26.5-18.4,35.6
			c-9.9,9.2-22.5,13.7-37.9,13.7c-19.1,0-34.1-6.2-45-18.5c-10.9-12.4-16.4-29.5-16.4-51.1C391.2,526.2,397.4,508.1,409.8,495.5z"/>
		<path fill="#FFFFFF" d="M612,603.4c-8.4,10.3-21.1,15.5-38.1,15.5c-17,0-29.7-5.2-38.1-15.5c-8.4-10.3-12.5-22.8-12.5-37.3
			c0-14.3,4.2-26.7,12.5-37.2c8.4-10.5,21.1-15.7,38.1-15.7c17,0,29.7,5.2,38.1,15.7c8.4,10.5,12.5,22.9,12.5,37.2
			C624.6,580.6,620.4,593,612,603.4z M591.3,589c4.1-5.4,6.1-13,6.1-23c0-9.9-2-17.6-6.1-22.9c-4.1-5.4-9.9-8-17.5-8
			c-7.6,0-13.4,2.7-17.5,8s-6.1,13-6.1,22.9c0,9.9,2,17.6,6.1,23s9.9,8.1,17.5,8.1C581.4,597.1,587.2,594.4,591.3,589z"/>
		<path fill="#FFFFFF" d="M766.8,516.7c4.2,1.7,8.1,4.7,11.5,8.9c2.8,3.5,4.7,7.7,5.6,12.7c0.6,3.3,0.9,8.2,0.9,14.6l-0.2,62.5
			h-26.6v-63.1c0-3.8-0.6-6.8-1.8-9.3c-2.3-4.6-6.5-6.9-12.7-6.9c-7.2,0-12.1,3-14.8,8.9c-1.4,3.2-2.1,6.9-2.1,11.4v59h-26.1v-59
			c0-5.9-0.6-10.2-1.8-12.8c-2.2-4.8-6.5-7.2-12.8-7.2c-7.4,0-12.4,2.4-14.9,7.2c-1.4,2.7-2.1,6.8-2.1,12.2v59.6h-26.3v-98.9h25.2
			V531c3.2-5.2,6.2-8.8,9.1-11c5-3.9,11.5-5.8,19.5-5.8c7.6,0,13.7,1.7,18.4,5c3.8,3.1,6.6,7.1,8.5,11.9c3.4-5.8,7.6-10.1,12.6-12.8
			c5.3-2.7,11.3-4.1,17.8-4.1C758.2,514.2,762.6,515,766.8,516.7z"/>
		<path fill="#FFFFFF" d="M932.4,516.7c4.2,1.7,8.1,4.7,11.5,8.9c2.8,3.5,4.7,7.7,5.6,12.7c0.6,3.3,0.9,8.2,0.9,14.6l-0.2,62.5
			h-26.6v-63.1c0-3.8-0.6-6.8-1.8-9.3c-2.3-4.6-6.5-6.9-12.7-6.9c-7.2,0-12.1,3-14.8,8.9c-1.4,3.2-2.1,6.9-2.1,11.4v59h-26.1v-59
			c0-5.9-0.6-10.2-1.8-12.8c-2.2-4.8-6.5-7.2-12.8-7.2c-7.4,0-12.4,2.4-14.9,7.2c-1.4,2.7-2.1,6.8-2.1,12.2v59.6h-26.3v-98.9h25.2
			V531c3.2-5.2,6.2-8.8,9.1-11c5-3.9,11.5-5.8,19.5-5.8c7.6,0,13.7,1.7,18.4,5c3.8,3.1,6.6,7.1,8.5,11.9c3.4-5.8,7.6-10.1,12.6-12.8
			c5.3-2.7,11.3-4.1,17.8-4.1C923.8,514.2,928.1,515,932.4,516.7z"/>
		<path fill="#FFFFFF" d="M1056.9,603.4c-8.4,10.3-21.1,15.5-38.1,15.5c-17,0-29.7-5.2-38.1-15.5c-8.4-10.3-12.5-22.8-12.5-37.3
			c0-14.3,4.2-26.7,12.5-37.2c8.4-10.5,21.1-15.7,38.1-15.7c17,0,29.7,5.2,38.1,15.7c8.4,10.5,12.5,22.9,12.5,37.2
			C1069.5,580.6,1065.3,593,1056.9,603.4z M1036.2,589c4.1-5.4,6.1-13,6.1-23c0-9.9-2-17.6-6.1-22.9c-4.1-5.4-9.9-8-17.5-8
			c-7.6,0-13.4,2.7-17.5,8s-6.1,13-6.1,22.9c0,9.9,2,17.6,6.1,23s9.9,8.1,17.5,8.1C1026.3,597.1,1032.2,594.4,1036.2,589z"/>
		<path fill="#FFFFFF" d="M1168,522.1c6.5,5.4,9.7,14.3,9.7,26.7v66.7h-26.6v-60.3c0-5.2-0.7-9.2-2.1-12c-2.5-5.1-7.3-7.6-14.4-7.6
			c-8.7,0-14.7,3.7-18,11.2c-1.7,3.9-2.5,9-2.5,15.1v53.6h-25.9v-98.9h25.1V531c3.3-5.1,6.5-8.8,9.4-11c5.3-4,12-6,20.2-6
			C1153.1,514,1161.5,516.7,1168,522.1z"/>
		<path fill="#FFFFFF" d="M1255.6,481.6h95.6v23.5h-67.7V536h59.4v23.3h-59.4v56.2h-27.8V481.6z"/>
		<path fill="#FFFFFF" d="M1393.1,516.4v59.7c0,5.6,0.7,9.9,2,12.7c2.4,5,7,7.5,13.8,7.5c8.8,0,14.8-3.6,18.1-10.7
			c1.7-3.9,2.5-9,2.5-15.4v-53.9h26.3v99.1h-25.2v-14c-0.2,0.3-0.8,1.2-1.8,2.7c-1,1.5-2.1,2.9-3.4,4c-4.1,3.6-8,6.1-11.7,7.5
			c-3.8,1.3-8.2,2-13.3,2c-14.6,0-24.5-5.3-29.6-15.8c-2.8-5.8-4.3-14.4-4.3-25.7v-59.7H1393.1z"/>
		<path fill="#FFFFFF" d="M1470.9,535.7v-18.5h13.8v-27.6h25.6v27.6h16.1v18.5h-16.1v52.4c0,4.1,0.5,6.6,1.5,7.6
			c1,1,4.2,1.5,9.5,1.5c0.8,0,1.6,0,2.5,0c0.9,0,1.7-0.1,2.6-0.1v19.4l-12.3,0.5c-12.2,0.4-20.6-1.7-25.1-6.4
			c-2.9-3-4.4-7.5-4.4-13.7v-61H1470.9z"/>
		<path fill="#FFFFFF" d="M1568.9,516.4v59.7c0,5.6,0.7,9.9,2,12.7c2.4,5,7,7.5,13.8,7.5c8.8,0,14.8-3.6,18.1-10.7
			c1.7-3.9,2.5-9,2.5-15.4v-53.9h26.3v99.1h-25.2v-14c-0.2,0.3-0.8,1.2-1.8,2.7c-1,1.5-2.1,2.9-3.4,4c-4.1,3.6-8,6.1-11.7,7.5
			c-3.8,1.3-8.2,2-13.3,2c-14.6,0-24.5-5.3-29.6-15.8c-2.8-5.8-4.3-14.4-4.3-25.7v-59.7H1568.9z"/>
		<path fill="#FFFFFF" d="M1711.9,514c0.3,0,1.1,0.1,2.2,0.1v26.6c-1.6-0.2-3.1-0.3-4.4-0.4c-1.3-0.1-2.3-0.1-3.1-0.1
			c-10.4,0-17.4,3.4-21,10.2c-2,3.8-3,9.7-3,17.6v47.4h-26.1v-99.1h24.7v17.3c4-6.6,7.5-11.1,10.5-13.5c4.8-4.1,11.2-6.1,18.9-6.1
			C1711.1,514,1711.5,514,1711.9,514z"/>
		<path fill="#FFFFFF" d="M1793.9,518.4c6.9,3.1,12.6,8,17.1,14.7c4.1,5.9,6.7,12.7,7.9,20.5c0.7,4.6,1,11.1,0.9,19.7h-72.2
			c0.4,9.9,3.9,16.9,10.4,20.9c4,2.5,8.7,3.7,14.3,3.7c5.9,0,10.7-1.5,14.4-4.5c2-1.6,3.8-3.9,5.3-6.8h26.5
			c-0.7,5.9-3.9,11.9-9.6,17.9c-8.9,9.6-21.3,14.5-37.3,14.5c-13.2,0-24.8-4.1-34.9-12.2s-15.1-21.4-15.1-39.7
			c0-17.2,4.6-30.3,13.7-39.5c9.1-9.2,20.9-13.7,35.4-13.7C1779.2,513.7,1786.9,515.3,1793.9,518.4z M1755.1,540.8
			c-3.7,3.8-6,8.9-6.9,15.3h44.6c-0.5-6.9-2.8-12.1-6.9-15.7c-4.1-3.6-9.3-5.3-15.4-5.3C1763.9,535.1,1758.7,537,1755.1,540.8z"/>
	</g>
</g>
</svg>
